<?xml version="1.0" encoding="utf-8"?>
<svg viewBox="0 0 500 500" xmlns="http://www.w3.org/2000/svg">
  <rect x="-0.279" y="0.386" width="501.612" height="499.013" style="fill: rgb(27, 26, 24);"/>
  <path fill-rule="evenodd" clip-rule="evenodd" d="M 101.027 104.633 C 101.027 103.403 101.033 101.816 101.033 101.092 C 100.916 101.066 100.81 101.022 100.598 100.943 C 100.435 100.881 99.944 100.719 100.005 100.159 C 100.065 99.618 101.182 99.397 101.811 99.296 C 105.765 98.657 110.326 98.698 114.606 98.745 C 116.394 98.766 117.973 98.828 119.708 98.904 C 121.992 99 122.753 99.085 122.753 99.085 C 122.753 99.085 124.753 99.079 126.144 99.61 C 126.516 99.751 126.473 99.779 126.552 99.849 C 126.718 99.994 126.492 100.315 126.38 100.473 C 126.239 100.712 126.18 100.749 126.052 100.877 C 125.908 101.02 125.94 101.101 125.956 101.259 C 125.956 101.985 125.981 102.926 125.981 103.849 C 125.981 130.328 126.065 155.409 126.065 180.879 C 126.697 180.575 127.17 180.385 127.714 180.145 C 129.285 179.446 131.105 178.798 133.13 178.417 C 135.862 177.903 138.863 178.053 142.079 178.26 C 148.904 178.702 152.626 178.877 158.012 179.124 C 158.79 179.16 159.2 179.193 160.401 179.228 C 160.741 178.607 161.13 178.311 161.859 178.339 C 164.428 178.438 166.197 178.536 168.436 178.588 C 169.207 178.743 169.147 179.241 169.394 179.751 C 173.77 179.981 178.161 180.196 182.502 180.458 C 182.861 179.903 182.935 179.441 183.209 178.888 C 183.395 178.513 183.65 178.308 183.836 178.025 C 184.004 177.77 184.246 177.375 184.23 176.926 C 184.213 176.464 184.111 176.506 183.836 176.219 C 183.435 175.802 182.853 175.464 183.131 174.414 C 182.138 173.849 180.395 173.295 180.069 172.06 C 179.965 171.661 180.053 171.184 180.227 170.567 C 180.535 169.467 180.738 168.646 181.797 168.37 C 183.262 167.989 185.468 168.278 187.055 168.528 C 190.358 169.048 192.818 169.791 195.454 171.117 C 196.793 171.791 198.312 172.559 198.516 173.551 C 198.671 174.31 198.336 174.866 198.122 175.513 C 197.923 176.12 197.776 176.632 197.259 176.926 C 196.168 177.546 194.875 176.928 193.335 177.241 C 192.636 177.381 192.532 178.05 191.844 178.26 C 191.288 178.43 191.035 178.29 190.352 178.26 C 189.888 179.043 190.075 179.661 190.116 180.773 C 200.652 181.392 209.363 181.881 218.679 182.333 C 225.712 182.673 229.956 182.947 236.193 183.285 C 245.718 183.8 253.622 184.233 261.546 184.619 C 262.384 184.66 263.159 184.687 264.273 184.722 C 264.442 184.289 264.724 184.147 265.313 183.99 C 266.257 183.74 267.668 183.935 268.847 183.99 C 270.088 184.05 271.01 184.082 272.379 184.148 C 272.967 184.196 272.948 184.741 273.007 185.247 C 274.586 185.305 275.155 185.351 275.99 185.403 C 284.312 185.92 292.787 186.324 301.107 186.738 C 302.981 186.831 304.778 186.877 306.524 187.209 C 309.755 187.822 312.4 188.926 315.001 190.426 C 319.999 193.312 323.924 197.275 327.09 201.808 C 330.299 206.407 332.587 211.849 334.154 218.214 C 339.695 218.208 346.074 217.978 352.13 217.978 C 353.397 217.978 354.487 217.79 354.876 218.45 C 354.999 219.327 355.051 220.309 354.955 221.196 C 359.056 221.188 363.019 220.796 366.651 221.196 C 370.341 221.605 373.451 222.623 376.227 223.944 C 381.8 226.593 386.191 230.402 389.806 234.933 C 393.33 239.349 396.358 244.784 398.126 251.26 C 399.879 257.676 400.677 265.541 399.304 273.238 C 398.069 280.164 395.482 285.728 391.848 290.428 C 388.325 294.981 383.641 298.757 377.639 300.79 C 374.37 301.897 370.779 302.055 366.885 302.36 C 355.527 303.248 344.084 304.146 332.663 305.028 C 335.414 305.019 337.353 305.005 339.414 305.106 C 345.445 305.408 349.843 308.45 353.228 311.7 C 357.794 316.088 361.099 322.241 363.04 329.047 C 365.106 336.296 365.519 345.724 364.06 353.537 C 362.664 361.006 359.84 367.484 355.818 372.455 C 352.06 377.1 346.564 381.952 338.079 381.952 C 335.706 381.952 333.458 381.952 331.249 381.952 C 329.082 381.952 326.84 382.058 324.656 381.796 C 320.75 381.326 317.774 379.793 315.08 377.793 C 304.824 370.177 299.307 356.663 300.48 338.546 C 290.902 339.537 280.983 340.87 271.28 341.999 C 270.053 349.652 267.576 355.622 263.43 360.602 C 259.333 365.527 254.479 369.394 245.769 369.393 C 241.102 369.393 236.544 369.783 232.819 369.08 C 229.137 368.384 226.356 366.817 223.871 364.841 C 219.069 361.026 215.494 355.951 213.273 349.064 C 209.942 349.292 206.301 349.888 202.834 350.242 C 204.6 361.167 206.467 371.821 208.25 382.738 C 208.838 386.343 209.559 389.952 210.124 393.68 C 213.17 394.259 215.243 394.645 217.668 395.062 C 220.071 395.475 220.101 395.454 220.101 395.69 C 220.101 397.146 220.113 397.203 218.06 397.652 C 213.806 398.584 209.792 399.443 205.659 400.399 C 203.963 400.791 201.533 401.381 200.636 401.263 C 196.47 400.072 192.526 399.041 187.762 397.731 C 186.617 397.414 186.586 397.361 186.586 396.632 C 186.586 395.765 186.513 395.814 188.548 395.454 C 191.482 394.934 193.232 394.63 194.984 394.355 C 192.535 379.589 189.99 364.915 187.449 350.242 C 171.403 348.046 155.641 345.913 139.567 343.648 C 138.735 349.731 137.998 355.948 137.213 362.172 C 136.424 368.413 135.689 374.246 134.857 380.618 C 136.833 381.019 138.441 381.332 140.588 381.717 C 141.998 381.971 142 382.049 142 382.974 C 142 383.69 141.978 383.744 140.352 383.993 C 135.856 384.687 131.428 385.353 126.773 386.034 C 125.967 386.153 124.731 386.368 124.497 386.349 C 123.776 386.287 122.395 385.802 121.357 385.484 C 119.233 384.836 117.385 384.275 115.233 383.601 C 112.927 382.879 112.879 382.858 112.879 382.031 C 112.879 381.249 112.881 381.271 114.528 381.089 C 116.822 380.836 119.289 380.566 121.121 380.382 C 123.716 359.418 126.079 338.1 128.656 316.881 C 128.936 314.581 129.358 312.424 128.971 310.053 C 128.938 309.851 128.942 309.699 128.892 309.503 C 128.62 309.191 128.204 308.829 128.343 308.168 C 128.471 307.378 129.18 307.223 129.891 306.938 C 130.825 298.714 131.839 290.366 132.817 282.186 C 122.218 279.769 115.411 272.504 110.603 264.055 C 105.885 255.761 102.597 244.697 102.597 231.716 C 102.597 222.984 103.613 214.946 105.815 208.088 C 101.324 208.088 101.305 207.484 101.305 203.187 C 101.305 192.387 101.341 185.198 101.341 167.506 M 103.931 199.375 C 103.931 205.748 104.102 205.694 105.001 205.694 C 107.455 205.694 108.664 205.654 110.838 205.654 C 117.504 205.654 124.198 205.654 130.775 205.654 C 132.297 205.612 132.876 203.477 133.523 202.043 C 134.155 200.643 134.639 198.787 134.7 196.864 C 134.77 194.646 134.334 193.207 133.679 191.525 C 133.314 190.588 132.062 187.848 131.089 187.758 C 130.569 187.71 129.432 188.501 128.813 188.856 C 126.457 190.211 124.765 191.587 122.848 193.174 C 121.127 194.599 119.214 196.398 117.196 197.805 C 116.704 198.148 115.45 199.285 114.998 198.591 C 114.742 198.198 115.316 197.449 115.626 197.021 C 116.667 195.58 117.869 194.186 118.922 193.095 C 119.64 192.352 120.463 191.476 121.278 190.662 C 122.071 189.868 123.733 188.165 123.733 187.154 C 123.733 185.949 123.779 184.89 123.711 183.048 C 123.641 181.214 123.711 179.22 123.711 177.554 C 123.711 155.02 123.548 129.264 123.548 106.752 C 123.548 105.386 123.646 101.384 122.682 101.479 C 121.788 101.568 119.701 101.708 118.373 101.729 C 114.288 101.79 110.478 101.862 106.756 101.65 C 105.962 101.605 104.965 101.443 104.4 101.572 C 103.295 101.824 103.381 102.704 103.381 104.318 M 196.083 172.923 C 195.662 172.667 195.13 172.444 194.669 172.216 C 192.029 170.91 188.183 169.698 184.779 169.468 C 183.772 169.402 182.331 169.348 181.953 169.862 C 182.583 170.439 184.085 170.114 184.937 170.175 C 187.283 170.346 189.536 170.939 191.53 171.589 C 193.054 172.085 194.575 172.705 195.768 173.394 C 196.173 173.627 196.559 174.131 197.103 173.943 C 196.998 173.486 196.492 173.173 196.083 172.923 Z M 181.247 171.51 C 182.496 172.912 184.708 173.777 186.976 174.493 C 189.229 175.203 191.76 175.958 194.119 176.063 C 195.066 176.106 196.489 176.199 196.788 175.356 C 192.831 175.547 189.928 174.74 187.055 173.865 C 184.829 173.187 182.91 172.297 181.326 171.197 C 181.343 171.345 181.237 171.369 181.247 171.51 Z M 193.963 174.022 C 191.237 172.823 188.043 171.672 184.543 171.51 C 187.346 172.632 190.587 173.734 193.963 174.022 Z M 185.957 177.475 C 185.699 177.75 185.67 178.373 185.8 178.811 C 186.29 179.155 186.954 179.331 187.683 179.438 C 188.094 179.195 188.424 178.871 188.39 178.181 C 187.89 177.66 186.842 177.359 185.957 177.475 Z M 183.444 183.677 C 184.761 184.246 186.54 184.765 188.233 184.697 C 187.844 183.709 188.273 181.916 188.469 180.773 C 186.85 181.081 185.545 180.471 184.622 179.83 C 184.167 181.049 184.126 182.684 183.444 183.677 Z M 105.343 238.229 C 106.413 248.316 109.501 257.304 113.664 264.212 C 115.852 267.845 118.326 270.885 121.434 273.552 C 124.481 276.167 128.155 278.466 132.58 279.517 C 137.772 280.754 142.922 279.633 146.866 277.791 C 150.839 275.936 153.891 273.391 156.599 270.335 C 161.745 264.529 165.688 256.729 167.981 247.493 C 170.294 238.176 170.883 226.927 168.923 216.644 C 167.127 207.223 163.743 199.111 158.798 192.467 C 156.414 189.267 153.655 186.55 149.927 184.226 C 146.499 182.088 141.978 180.082 136.504 180.458 C 133.666 180.654 130.976 181.528 128.813 182.499 C 128.119 182.811 127.268 183.25 126.851 183.756 C 129.64 183.536 130.662 183.372 133.602 183.049 C 135.766 182.811 138.296 182.284 140.351 183.127 C 142.424 183.977 144.356 186.189 145.375 188.072 C 147.835 192.616 147.968 199.988 145.611 204.635 C 144.607 206.613 142.62 208.842 140.666 209.737 C 138.435 210.758 135.029 210.268 132.109 209.816 C 130.974 209.639 130.008 209.476 128.969 209.345 C 127.839 209.201 127.023 209.098 125.752 208.952 C 124.939 208.859 124.127 208.54 123.554 208.091 C 122.424 208.091 121.071 208.086 119.864 208.086 C 115.996 208.086 112.321 208.088 108.639 208.088 C 105.869 217.031 104.179 227.26 105.343 238.229 Z M 150.163 181.244 C 156.913 185.332 161.432 190.771 165.076 197.492 C 168.692 204.157 171.253 212.252 172.142 221.667 C 173.086 231.678 172.183 241.934 169.944 249.926 C 167.892 257.243 165.188 263.201 161.309 268.607 C 160.73 269.415 160.134 270.27 159.897 271.119 C 158.974 274.412 163.283 274.651 166.411 274.651 C 169.233 274.651 172.17 274.324 174.496 274.259 C 174.771 274.053 174.644 273.604 174.731 273.238 C 175.289 270.891 177.865 269.445 180.225 268.45 C 182.214 267.612 184.832 266.607 187.134 267.116 C 189.688 267.68 189.261 270.858 189.881 273.473 C 225.972 271.834 261.826 269.96 297.809 268.215 C 297.809 264.76 298.959 262.847 301.185 261.228 C 302.786 260.063 304.78 259.094 306.837 259.658 C 309.972 260.52 310.216 264.035 310.917 267.429 C 315.248 266.575 318.914 264.553 321.986 262.092 C 325.151 259.556 327.085 256.305 328.894 252.436 C 332.372 244.995 334.255 234.767 332.74 224.415 C 331.355 214.952 328.049 207.106 323.164 200.867 C 318.269 194.618 311.558 190.028 301.812 189.092 C 302.28 189.315 302.717 189.568 303.147 189.799 C 308.081 192.452 312.223 196.149 315.55 200.317 C 320.966 207.106 325.06 215.929 326.225 227.083 C 326.362 228.397 326.348 229.969 326.225 230.93 C 326.064 232.185 326.094 232.396 323.507 232.396 C 313.079 232.394 299.925 232.421 289.882 232.421 C 256.313 232.421 222.653 232.421 189.017 232.421 C 187.509 232.421 185.931 232.467 184.858 232.185 C 182.463 231.559 182.938 228.734 182.738 226.22 C 182.382 221.787 181.659 217.854 180.697 213.975 C 178.208 203.949 173.973 195.476 167.588 189.092 C 164.558 186.061 160.646 183.141 156.128 181.557 C 155.329 181.277 153.97 181.299 152.988 181.244 C 152.006 181.187 150.872 181.162 150.006 181.086 C 149.821 181.073 150.112 181.211 150.163 181.244 Z M 176.852 197.805 C 180.033 203.681 182.391 210.22 183.759 217.822 C 183.952 218.892 184.111 219.706 184.387 221.118 C 184.649 222.467 186.235 223.202 187.606 223.237 C 190.606 223.314 192.33 223.237 194.748 223.237 C 206.725 223.237 217.969 223.344 230.541 223.395 C 234.18 223.409 237.783 223.446 241.216 223.472 C 244.299 223.498 244.365 223.558 244.356 223.001 C 244.531 219.667 243.706 215.958 243.021 213.033 C 242.778 211.988 242.49 210.685 242.865 209.658 C 243.402 208.184 245.061 208.312 247.103 208.323 C 249.853 208.337 250.928 209.047 252.676 209.972 C 255.214 211.314 257.702 212.682 260.134 214.053 C 262.978 215.659 266.014 217.257 268.218 219.392 C 268.475 219.64 268.875 220.304 269.16 220.255 C 268.826 218.366 268.483 216.706 267.905 214.839 C 267.456 213.389 266.259 211.25 266.962 209.422 C 267.459 208.135 268.721 208.167 270.573 208.167 C 271.408 208.167 272.32 208.146 273.007 208.246 C 274.562 208.469 275.794 209.095 276.774 209.58 C 279.19 210.774 281.201 211.786 283.525 212.954 C 285.648 214.023 288.116 215.276 290.197 216.408 C 293.07 217.971 296.028 219.73 296.241 223.551 C 303.216 223.589 310.416 223.61 317.355 223.631 C 321.392 223.642 323.202 223.506 323.101 222.179 C 323.085 222.01 323.079 221.865 323.064 221.806 C 322.982 220.272 322.481 219.112 322.065 217.743 C 320.769 213.465 319.128 209.903 317.12 206.518 C 313.144 199.814 307.733 194.252 300.401 190.976 C 297.901 189.859 294.997 188.814 292.002 188.621 C 285.329 188.191 278.79 187.944 271.514 187.601 C 264.752 187.282 257.921 186.897 251.107 186.502 C 230.723 185.32 210.211 184.308 189.803 183.206 C 189.666 184.175 190.681 184.425 190.274 185.56 C 189.798 186.886 186.948 186.401 185.485 186.11 C 183.465 185.707 182.153 185.173 181.482 184.147 C 181.044 183.517 181.176 183.217 181.403 182.735 C 175.267 182.388 168.248 182.107 161.78 181.792 C 168.208 185.664 173.201 191.065 176.852 197.805 Z M 138.468 205.811 C 142.42 204.878 144.569 202.018 144.904 197.492 C 145.007 196.093 144.808 194.572 144.512 193.253 C 143.976 190.863 142.926 188.407 141.451 186.973 C 140.487 186.037 138.656 184.992 137.054 185.011 C 136.435 185.018 135.657 185.141 134.936 185.247 C 134.126 185.365 133.529 185.462 132.816 185.56 C 133.039 185.769 133.282 186.093 133.523 186.346 C 135.41 188.327 136.857 191.321 137.054 194.901 C 137.214 197.768 136.923 200.001 136.27 201.966 C 135.875 203.155 135.341 204.214 135.013 205.341 C 134.71 206.103 137.402 206.064 138.468 205.811 Z M 271.593 219.705 C 274.116 218.981 276.935 218.949 279.443 219.469 C 281.95 219.989 284.516 220.552 287.136 220.491 C 284.257 218.875 281.247 217.295 278.265 215.623 C 275.283 213.952 272.267 212.083 269.239 210.6 C 270.079 213.58 271.158 216.32 271.593 219.705 Z M 274.969 211.228 C 279.623 213.819 284.513 216.544 289.176 219.077 C 291.243 220.201 293.7 221.699 293.337 224.886 C 293.281 225.36 293 225.738 293.022 226.143 C 293.912 225.79 294.02 224.247 293.885 223.159 C 293.775 222.26 293.206 221.333 292.709 220.804 C 291.613 219.64 289.939 218.832 288.312 217.978 C 283.75 215.583 278.205 212.605 273.949 210.6 C 273.136 210.293 274.626 211.038 274.969 211.228 Z M 245.198 211.488 C 245.65 213.371 245.994 214.778 246.318 216.88 C 246.647 219.009 246.678 221.278 247.024 223.472 C 249.38 223.88 250.757 224.057 252.833 224.415 C 254.841 224.759 257.685 225.088 259.642 225.406 C 257.857 223.444 259.272 220.819 261.932 221.155 C 263.222 221.482 263.941 223.567 263.091 224.846 C 262.853 225.15 262.706 225.336 262.537 225.444 C 263.574 225.308 264.398 224.818 264.45 223.866 C 264.551 222.031 262.907 221.379 261.702 220.647 C 259.261 219.163 256.975 217.803 254.639 216.408 C 251.116 214.307 248.511 212.699 245.704 211.054 C 245.424 210.889 244.967 210.611 245.004 210.701 C 245.1 211.082 245.143 211.289 245.198 211.488 Z M 261.546 218.057 C 262.852 218.854 264.393 219.767 265.549 220.568 C 266.725 221.384 266.917 223.654 266.412 225.121 C 266.36 225.278 266.091 225.618 266.335 225.67 C 266.8 225.751 267.195 224.383 267.26 223.569 C 267.399 221.844 267.132 221.095 265.785 220.019 C 264.653 219.115 263.332 218.371 261.94 217.586 C 258.02 215.378 253.254 212.665 249.693 210.756 C 249.451 210.635 249.225 210.712 249.458 210.835 C 253.121 212.927 257.699 215.705 261.546 218.057 Z M 275.911 225.828 C 278.376 225.789 280.719 224.609 282.896 224.337 C 283.953 224.204 286.997 224.562 287.057 223.551 C 287.081 223.129 286.346 222.868 286.271 222.845 C 285.928 222.74 285.283 222.714 284.937 222.688 C 283.84 222.611 282.704 222.532 282.191 222.453 C 280.256 222.154 278.923 221.566 277.166 221.433 C 273.898 221.185 272.11 222.274 269.475 222.609 C 269.522 223.415 269.41 224.064 269.317 224.729 C 271.558 224.919 273.482 225.868 275.911 225.828 Z M 289.411 224.886 C 289.218 225.335 289.005 225.613 288.706 225.828 C 289.776 225.833 290.448 225.755 290.825 225.121 C 291.376 224.192 290.706 223.033 290.197 222.296 C 289.822 221.77 289.379 221.545 288.94 221.668 C 289.596 222.2 289.86 223.85 289.411 224.886 Z M 368.14 226.299 C 364.159 224.729 359.758 223.384 354.561 223.631 C 348.13 223.934 341.804 223.961 335.252 224.258 C 336.062 230.245 335.771 237.55 334.623 242.939 C 337.434 249.681 339.624 257.039 339.727 266.488 C 357.094 265.748 374.207 264.757 391.218 263.662 C 390.241 263.605 389.248 263.511 388.156 263.426 C 387.204 263.352 386.118 263.097 385.095 263.19 C 384.167 263.276 382.951 263.899 381.878 263.976 C 380.173 264.098 378.559 263.676 377.247 263.426 C 376.743 263.33 376.15 263.186 375.707 263.1 C 375.522 263.295 375.416 263.489 375.127 263.662 C 374.403 264.095 373.067 264.104 371.909 264.054 C 369.472 263.946 367.171 263.799 365.08 263.582 C 362.838 263.352 360.574 263.17 358.487 262.877 C 357.745 262.773 357.078 262.569 356.424 262.283 C 355.149 262.349 354.118 262.428 352.914 262.485 C 350.569 262.593 348.262 262.61 345.927 262.721 C 343.491 262.835 342.149 262.767 341.296 261.072 C 341.08 260.642 340.089 257.589 341.14 257.461 C 341.69 257.394 341.657 257.88 341.924 258.482 C 342.092 258.858 342.465 259.515 342.631 259.658 C 343.543 260.455 345.424 260.188 347.105 260.13 C 348.049 260.096 349.067 260.095 350.009 260.051 C 352.065 259.959 353.848 259.817 355.729 259.693 C 355.559 258.417 355.268 257.703 355.032 256.833 C 354.545 255.026 354.027 253.271 353.385 251.652 C 352.92 250.484 352.213 248.574 352.599 247.335 C 352.985 246.1 354.923 246.335 356.765 246.353 C 358.627 246.37 360.657 247.595 362.175 248.435 C 363.728 249.292 365.182 250.161 366.729 251.025 C 370.063 252.884 373.541 254.746 375.285 256.675 C 375.383 256.802 375.459 256.898 375.522 256.996 C 375.607 257.113 375.655 257.247 375.598 256.99 C 375.171 255.308 374.755 253.804 374.107 252.123 C 373.691 251.045 372.838 248.941 373.008 247.021 C 373.094 246.057 374.286 246.055 375.441 246 C 377.705 245.894 379.204 246.149 380.779 247.021 C 383.944 248.773 387.702 250.961 390.591 252.515 C 387.449 239.736 379.702 230.857 368.14 226.299 Z M 393.18 254.008 C 394.151 254.836 395.697 255.867 396.399 257.54 C 397.368 259.848 396.843 263.851 393.887 263.662 C 394.025 265.6 393.802 265.661 393.101 265.703 C 376.485 266.752 358.567 267.829 341.453 268.607 C 339.831 268.681 337.535 268.876 337.606 268.136 C 337.738 264.028 337.203 260.218 336.508 256.677 C 335.81 253.121 334.955 249.777 333.682 246.786 C 333.074 249.29 332.125 251.456 331.249 253.693 C 333.717 261.092 334.101 271.889 332.191 279.989 C 330.792 285.92 328.214 291.084 325.049 295.138 C 323.969 296.52 322.125 298.501 321.986 299.533 C 321.856 300.417 324.426 300.358 325.676 300.319 C 327.055 300.274 328.544 300.116 329.915 300.004 C 344.147 298.842 358 298.097 371.83 296.551 C 376.939 295.979 382.976 295.108 386.194 292.705 C 387.321 291.863 388.428 290.505 389.413 289.25 C 394.254 283.086 397.71 274.553 397.498 263.741 C 397.417 259.651 396.606 255.742 395.613 252.201 C 394.655 248.781 393.379 245.55 391.767 242.625 C 386.992 233.961 379.969 227.283 369.712 224.336 C 369.663 224.34 369.619 224.348 369.633 224.415 C 381.963 229.796 390.235 239.238 393.18 254.008 Z M 323.898 225.864 C 323.853 225.637 323.844 225.493 323.836 225.343 C 322.808 226.707 318.574 226.456 315.158 226.456 C 309.901 226.456 305.15 226.415 299.7 226.391 C 298.59 226.386 296.622 226.394 295.871 226.378 C 295.757 226.726 295.596 227.083 295.299 227.398 C 294.32 228.426 292.575 228.348 290.745 228.261 C 288.254 228.143 286.097 227.936 283.917 227.711 C 282.785 227.596 281.579 227.327 280.542 227.398 C 279.783 227.45 279.024 227.804 278.265 227.947 C 275.456 228.478 272.684 227.811 270.338 227.319 C 269.751 227.197 268.97 226.976 268.532 227.006 C 268.053 227.038 267.936 227.308 267.59 227.477 C 266.637 227.939 265.423 227.839 264.136 227.79 C 259.951 227.634 256.453 227.147 252.597 226.691 C 251.051 226.51 249.546 226.204 248.044 226.143 C 244.814 226.005 241.326 226.165 237.919 226.143 C 224.402 226.051 210.638 225.985 197.73 225.985 C 194.232 225.985 191.352 226.059 187.526 225.985 C 186.671 225.969 185.572 225.782 184.779 225.278 C 185.141 230.097 184.893 230.261 185.713 230.261 C 189.106 230.315 190.934 230.302 193.727 230.302 C 235.826 230.304 280.621 230.261 322.546 230.261 C 323.964 230.261 324.193 230.03 324.2 229.689 C 324.173 227.649 324.054 227.4 323.898 225.864 Z M 375.206 248.67 C 375.965 250.549 376.684 252.582 377.247 254.557 C 377.441 255.243 377.539 255.967 377.875 256.598 C 381.808 254.847 385.498 257.258 389.413 256.912 C 384.584 254.177 379.962 251.238 375.206 248.435 C 375.067 248.375 375.127 248.512 375.206 248.67 Z M 394.829 260.836 C 395.176 259.138 394.738 257.823 393.995 257.036 C 393.183 256.177 391.528 255.303 390.355 254.636 C 386.772 252.596 382.796 250.514 379.522 248.591 C 379.373 248.487 379.267 248.487 379.522 248.67 C 382.516 250.606 386.426 252.854 389.648 254.792 C 390.812 255.492 392.113 256.087 393.024 256.833 C 394.23 257.821 394.959 259.918 394.358 261.62 C 394.712 261.573 394.777 261.092 394.829 260.836 Z M 355.818 251.731 C 356.488 253.635 357.018 255.658 357.465 257.617 C 357.693 258.612 357.895 259.393 358.251 260.601 C 361.288 261.096 364.594 261.322 367.827 261.62 C 367.222 259.905 367.796 257.714 369.946 258.009 C 369.301 257.527 368.759 257.198 368.14 256.833 C 363.674 254.187 359.622 251.657 355.176 249.044 C 354.977 248.916 354.814 248.814 354.718 248.748 C 355.061 249.731 355.456 250.704 355.818 251.731 Z M 370.888 256.206 C 371.486 256.568 372.186 257.004 372.668 257.404 C 373.805 258.348 374.449 260.054 373.949 261.935 C 374.498 261.546 374.605 260.469 374.577 259.802 C 374.472 257.412 371.679 256.098 369.789 255.028 C 366.316 253.059 362.212 250.541 359.035 249.063 C 362.67 251.219 367.201 253.968 370.888 256.206 Z M 381.328 261.856 C 382.741 261.793 384.085 261.067 385.41 260.678 C 385.936 260.525 386.592 260.378 387.607 260.286 C 388.459 260.21 389.661 260.34 389.648 259.658 C 389.634 258.893 387.686 259.111 386.588 259.031 C 384.878 258.906 383.122 258.174 381.25 258.088 C 379.37 258.002 378.09 259.187 376.305 259.266 C 376.415 259.979 376.43 260.511 376.305 261.072 C 378.022 261.151 379.481 261.94 381.328 261.856 Z M 329.6 258.482 C 326.125 265.624 320.743 270.925 313.823 274.495 C 313.37 274.729 312.861 274.906 312.489 275.279 C 313.993 283.299 315.635 291.18 317.12 299.22 C 317.861 298.752 318.464 298.263 319.082 297.727 C 323.384 294.01 326.628 288.725 328.658 282.814 C 329.804 279.479 330.655 275.386 330.935 271.118 C 331.221 266.752 330.669 262.329 329.836 258.324 C 329.831 258.277 329.825 258.231 329.758 258.245 C 329.67 258.277 329.638 258.403 329.6 258.482 Z M 391.297 261.464 C 393.359 261.581 392.606 258.677 391.533 258.247 C 391.963 259.156 391.977 260.832 391.297 261.464 Z M 371.203 261.779 C 373.132 261.684 371.837 258.794 370.732 258.482 C 371.614 258.963 371.946 260.933 371.203 261.779 Z M 308.25 267.665 C 307.849 265.674 307.566 261.636 305.267 262.171 C 302.899 262.722 300.45 264.681 300.401 267.665 C 300.386 268.569 300.658 269.65 300.872 270.648 C 303.923 284.954 306.631 300.339 309.349 314.448 C 309.782 314.503 309.91 313.985 310.133 313.741 C 311.98 311.726 314.056 309.889 316.257 308.325 C 313.602 295.169 310.951 281.089 308.25 267.665 Z M 180.54 271.198 C 179.157 271.84 177.789 272.743 177.244 274.023 C 180.546 293.871 183.99 313.901 187.37 334.072 C 190.33 351.736 193.277 369.08 196.396 386.426 C 196.786 388.597 197.422 391.391 197.966 393.963 C 198.2 394.795 200.628 394.583 202.519 394.512 C 203.997 394.456 206.6 394.437 207.071 393.728 C 207.439 393.173 207.053 391.236 206.835 389.958 C 206.157 385.968 205.504 382.047 204.873 378.264 C 198.894 342.373 193.008 307.87 186.82 271.432 C 186.723 270.866 186.843 269.897 186.271 269.706 C 184.148 269.663 182.202 270.427 180.54 271.198 Z M 190.979 279.832 C 193.745 296.613 196.65 313.251 199.379 330.068 C 203.412 329.733 207.352 329.378 211.468 329.047 C 212.891 319.012 216.894 310.94 223.319 305.656 C 224.854 304.396 226.718 303.15 228.735 302.281 C 230.868 301.362 233.214 300.923 236.035 300.79 C 238.743 300.662 241.769 300.711 244.748 300.711 C 247.598 300.711 250.381 300.872 252.676 301.653 C 253.187 297.455 253.808 293.218 254.403 289.016 C 254.959 285.087 255.486 281.268 256.052 277.241 C 256.077 277.056 256.14 276.528 255.973 276.536 C 234.326 277.65 212.587 278.676 190.979 279.832 Z M 259.584 277.399 C 258.588 278.207 258.204 280.77 257.935 282.657 C 255.895 297.022 253.949 311.405 251.97 325.438 C 254.291 325.231 255.053 325.148 258.964 324.78 C 260.637 312.926 262.409 300.946 263.902 289.173 C 262.751 289.173 261.6 289.173 260.447 289.173 C 259.407 288.841 259.396 286.665 260.526 286.425 C 261.781 286.425 263.038 286.425 264.294 286.425 C 264.634 283.573 266.415 276.936 264.373 276.849 C 260.515 276.752 260.744 276.457 259.584 277.399 Z M 272.613 280.539 C 271.457 280.589 270.02 280.709 269.788 281.636 C 269.576 282.479 270.354 283.636 270.651 284.227 C 271.086 285.092 271.448 285.811 272.064 286.425 C 281.691 286.267 291.64 286.431 301.264 286.268 C 300.831 284.006 300.42 281.723 299.93 279.517 C 291.501 279.862 281.481 280.148 272.613 280.539 Z M 149.064 281.873 C 148.988 284.283 149.233 287.013 148.907 289.173 C 149.824 290.507 150.763 292.105 151.34 293.647 C 151.432 293.89 151.502 294.025 151.655 294.354 C 160.411 294.913 169.335 295.301 178.107 295.844 C 177.449 290.902 176.403 285.671 175.595 280.616 C 175.517 280.616 175.501 280.553 175.438 280.539 C 166.722 281.057 157.906 281.478 149.064 281.873 Z M 137.761 282.657 C 135.034 282.994 135.066 285.781 134.7 288.622 C 133.929 294.622 133.24 301.024 132.58 306.519 C 133.409 306.379 134.33 306.333 135.249 306.284 C 135.548 299.177 136.36 292.584 139.723 288.545 C 139.394 286.431 139.946 284.532 142.235 284.777 C 142.612 284.973 142.797 285.154 143.02 285.483 C 143.231 285.794 143.241 286.295 143.649 286.425 C 143.994 285.777 143.959 284.747 144.041 283.835 C 144.341 281.921 139.915 282.392 137.761 282.657 Z M 267.04 286.425 C 267.617 286.425 268.192 286.425 268.768 286.425 C 268.554 285.562 267.829 284.54 267.434 283.6 C 267.258 284.498 267.141 285.453 267.04 286.425 Z M 273.87 289.173 C 273.784 289.5 274.085 289.796 274.262 290.036 C 277.38 294.27 281.258 297.89 285.879 300.554 C 290.764 303.37 297.068 305.689 304.796 304.557 C 303.82 299.411 302.85 294.259 301.814 289.173 C 292.836 289.143 282.84 289.196 273.87 289.173 Z M 266.57 289.487 C 265.663 296.298 264.7 303.054 263.744 309.816 C 267.174 314.235 269.637 319.621 270.966 326.143 C 281.403 327.088 291.707 328.165 302.206 329.047 C 303.368 324.636 305.231 320.925 307.308 317.43 C 306.543 314.061 306.002 310.469 305.267 307.07 C 296.317 308.01 289.217 305.847 283.838 302.437 C 281.161 300.741 278.656 298.763 276.46 296.551 C 274.834 294.912 273.198 293.026 271.908 291.214 C 271.434 290.548 271.094 289.81 270.494 289.252 C 269.239 289.252 267.982 289.252 266.727 289.252 C 266.629 289.283 266.567 289.353 266.57 289.487 Z M 141.137 290.35 C 140.307 291.011 139.744 292.619 139.252 293.882 C 140.479 293.886 141.671 293.924 142.784 294.039 C 143.05 292.943 143.152 291.685 143.255 290.428 C 142.52 290.431 141.767 290.452 141.137 290.35 Z M 147.181 290.428 C 147.129 290.428 147.076 290.428 147.024 290.428 C 146.959 290.426 146.852 290.426 146.754 290.426 C 146.436 290.426 146.362 290.422 145.924 290.428 C 145.835 291.672 145.598 292.769 145.532 294.039 C 146.708 294.145 147.993 294.142 149.143 294.275 C 148.85 292.942 147.903 291.59 147.181 290.428 Z M 138.545 296.629 C 138.447 296.662 138.386 296.731 138.389 296.866 C 137.753 299.683 137.47 302.853 137.29 306.127 C 138.737 306.189 139.946 306.01 141.372 306.048 C 141.769 303.044 142.22 299.677 142.471 296.787 C 141.107 296.79 139.804 296.733 138.545 296.629 Z M 145.219 297.022 C 144.749 299.878 144.34 303.207 144.12 306.048 C 146.574 306.028 148.967 306.067 151.263 306.206 C 151.233 302.886 150.861 299.909 150.163 297.258 C 148.503 297.19 146.928 297.04 145.219 297.022 Z M 152.439 297.65 C 153.002 300.254 153.333 303.09 153.302 306.284 C 154.509 306.447 155.709 306.499 156.913 306.676 C 157.995 306.836 159.432 307.003 159.582 308.089 C 159.65 308.579 159.323 309.049 159.19 309.503 C 158.969 310.252 158.934 311.164 158.798 312.092 C 158.166 316.382 157.562 320.902 156.993 325.201 C 156.667 327.659 156.49 328.832 156.087 331.251 C 156.441 332.505 156.224 332.666 153.067 333.05 C 149.352 333.502 144.658 333.569 140.748 333.431 C 140.661 334.024 140.613 334.407 140.507 335.169 C 155.141 333.972 169.615 332.619 184.228 331.401 C 182.274 320.031 180.537 309.994 178.655 298.826 C 169.963 298.335 161.168 297.833 152.406 297.411 C 152.417 297.487 152.433 297.539 152.439 297.65 Z M 241.013 303.168 C 241.024 303.732 241.047 304.059 241.059 304.48 C 241.258 311.563 241.54 318.499 241.843 325.28 C 241.858 325.589 241.878 325.969 241.932 326.374 C 242.112 326.353 242.383 326.328 242.637 326.282 C 242.598 325.781 242.579 325.329 242.571 325.121 C 242.307 317.934 241.989 310.164 241.687 303.066 C 241.635 303.066 241.549 303.071 241.412 303.085 C 241.306 303.111 241.208 303.115 241.013 303.168 Z M 244.199 326.143 C 245.877 325.989 247.597 325.877 249.222 325.672 C 249.914 320.556 250.699 315.06 251.499 309.817 C 249.369 307.315 246.425 304.942 243.413 304.009 C 243.709 311.353 243.94 318.763 244.199 326.143 Z M 224.968 322.454 C 226.791 323.657 228.873 324.797 230.855 325.986 C 231.548 326.402 232.172 326.751 232.897 327.164 C 233.532 327.115 234.095 327.06 234.7 327.008 C 236.606 326.842 237.575 326.756 240.196 326.536 C 239.989 319.05 239.753 312.549 239.45 305.161 C 239.445 305.114 239.439 304.342 239.439 304.134 C 231.978 307.234 227.556 314.159 224.968 322.454 Z M 318.533 306.048 C 318.587 306.443 318.619 306.606 318.69 306.991 C 319.621 306.64 320.549 306.285 321.437 305.892 C 320.187 305.942 319.768 305.972 318.533 306.048 Z M 332.155 308.042 C 332.16 308.701 332.163 309.005 332.19 309.659 C 332.603 319.419 332.906 329.619 333.211 339.33 C 333.23 339.926 333.233 340.569 333.263 341.151 C 333.444 341.107 333.779 341.023 334.03 340.89 C 334.03 335.841 333.66 329.378 333.524 324.494 C 333.377 319.183 333.194 314.061 333.015 308.809 C 333.006 308.521 332.993 308.385 332.942 307.903 C 332.599 307.911 332.316 307.983 332.155 308.042 Z M 150.556 308.01 C 146.141 307.767 141.518 307.832 137.086 308.01 C 137.08 308.44 137.567 308.333 137.605 308.64 C 141.277 308.722 144.503 308.714 148.915 308.707 C 149.511 308.706 150.503 308.693 151.271 308.668 C 151.271 308.516 151.277 308.439 151.265 308.07 C 150.996 308.058 150.871 308.036 150.556 308.01 Z M 133.915 308.325 C 135.502 308.523 135.437 308.504 135.436 308.104 C 134.852 308.096 134.323 308.159 133.915 308.325 Z M 153.31 308.537 C 153.835 308.543 154.254 308.458 154.261 308.281 C 153.968 308.236 153.533 308.183 153.302 308.168 C 153.31 308.282 153.31 308.451 153.31 308.537 Z M 336.429 337.76 C 336.683 337.48 337.014 337.177 337.293 336.897 C 339.034 335.155 340.686 333.438 342.395 331.638 C 343.439 330.538 344.572 329.408 345.771 328.105 C 346.217 327.619 346.865 327.076 347.497 326.378 C 347.919 325.914 349.04 324.911 349.067 324.494 C 349.078 324.328 348.756 323.746 348.517 323.238 C 345.472 316.761 341.157 311.016 334.702 308.638 C 334.987 318.611 335.403 328.633 335.651 338.642 C 335.962 338.252 336.199 338.015 336.429 337.76 Z M 320.652 317.352 C 321.879 323.267 322.951 329.338 324.184 335.249 C 326.626 336.81 329.011 338.429 331.562 339.88 C 331.148 329.593 330.889 319.15 330.463 308.875 C 330.46 308.826 330.452 308.782 330.386 308.796 C 326.288 310.796 323.037 313.64 320.652 317.352 Z M 153.302 310.287 C 153.597 310.625 154.034 311.387 153.853 312.171 C 153.413 314.066 149.81 313.596 150.634 311.073 C 150.746 310.7 151.015 310.515 151.124 310.423 C 146.117 310.632 140.345 310.625 135.485 310.366 C 134.032 310.288 132.428 310.178 131.244 310.02 C 131.198 311.694 131.549 313.563 131.796 315.232 C 132.545 320.325 133.108 325.48 133.994 330.381 C 134.119 330.758 135.673 331.308 138.389 331.48 C 141.884 331.702 145.706 331.702 149.143 331.48 C 150.896 331.368 153.655 331.254 153.853 330.617 C 154.316 328.715 154.54 327.341 154.795 325.593 C 155.048 323.85 155.258 322.029 155.502 320.255 C 155.905 317.3 156.567 314.015 156.836 311.15 C 156.868 310.801 157.043 310.206 156.6 309.972 C 155.511 310.088 154.461 310.243 153.302 310.287 Z M 314.922 329.362 C 316.562 330.543 318.642 331.744 320.339 332.815 C 320.566 332.96 320.9 333.406 321.045 333.129 C 320.177 328.973 319.49 324.638 318.533 320.57 C 317.113 323.284 315.827 326.132 314.922 329.362 Z M 351.736 324.337 C 350.95 325.189 350.164 325.923 349.538 326.614 C 345.515 331.044 340.278 336.421 336.212 340.487 C 336.503 340.538 336.988 340.677 337.173 340.723 C 338.092 339.747 338.425 339.411 339.099 338.702 C 341.353 336.326 343.504 333.983 345.771 331.716 C 347.258 330.228 348.645 328.769 350.155 327.166 C 351.63 325.597 353.102 323.994 354.553 322.352 C 354.558 322.216 354.363 321.691 354.267 321.656 C 353.673 322.258 352.523 323.485 351.736 324.337 Z M 129.048 336.19 C 131.986 335.937 134.952 335.709 137.84 335.406 C 137.918 334.699 138.032 334.027 138.074 333.287 C 136.002 333.164 131.598 332.982 131.638 331.716 C 131.655 331.158 131.837 330.93 131.796 330.54 C 131.401 327.899 131.148 325.115 130.618 322.611 C 130.155 327.197 129.556 331.648 129.048 336.19 Z M 224.261 324.652 C 226.177 325.868 227.108 326.459 228.855 327.537 C 229.311 327.498 229.433 327.482 229.954 327.425 C 229.464 327.104 229.241 326.951 228.814 326.693 C 227.366 325.822 226.438 325.227 224.957 324.355 C 224.66 324.186 224.544 324.105 224.419 324.043 C 224.359 324.217 224.293 324.457 224.261 324.652 Z M 223.638 327.972 C 224.392 327.915 225.018 327.844 225.91 327.792 C 225.263 327.349 224.543 326.93 223.869 326.535 C 223.75 326.93 223.663 327.449 223.638 327.972 Z M 350.716 329.126 C 349.197 330.679 347.546 332.315 346.006 333.992 C 344.713 335.401 343.252 336.705 342.081 338.075 C 341.945 338.233 341.507 338.549 341.768 338.623 C 343.194 338.157 344.857 338.347 345.613 338.938 C 348.13 340.903 348.264 346.784 346.163 348.985 C 347.611 349.871 349.232 350.751 350.637 351.575 C 351.138 351.869 351.575 352.27 352.128 352.361 C 353.56 344.824 352.885 335.333 350.716 329.126 Z M 263.587 330.381 C 261.851 330.211 260.716 330.114 259.185 329.991 C 253.949 330.451 248.751 330.941 243.885 331.403 C 229.38 332.775 214.946 334.196 200.399 335.562 C 200.699 338.195 201.338 341.166 201.733 343.961 C 232.41 340.639 263.366 337.303 293.885 333.915 C 294.856 333.806 295.863 333.667 297.038 333.543 C 286.382 332.576 274.404 331.45 263.587 330.381 Z M 330.475 341.167 C 324.669 337.569 320.299 334.846 314.775 331.346 C 314.535 331.177 314.258 331.05 314.171 330.998 C 314.13 331.208 314.054 331.534 314.029 331.836 C 318.312 334.472 322.622 337.417 326.931 339.958 C 328.065 340.626 330.111 341.848 331.164 342.465 C 331.29 342.286 331.475 341.943 331.521 341.847 C 330.995 341.483 330.77 341.35 330.475 341.167 Z M 313.221 335.913 C 313.548 337.754 313.958 339.328 314.215 340.979 C 316.313 341.08 318.721 341.286 320.731 341.215 C 321.178 340.511 321.308 339.49 321.751 338.781 C 319.066 337.175 316.351 335.338 313.672 333.727 C 313.487 334.34 313.303 335.26 313.221 335.913 Z M 299.469 336.233 C 299.85 336.187 300.331 336.127 300.793 336.056 C 300.807 335.755 300.813 335.66 300.824 335.531 C 268.189 339.068 235.734 342.598 203.539 346.158 C 203.085 346.209 202.641 346.252 202.144 346.309 C 202.216 346.789 202.309 347.338 202.363 347.807 C 234.892 343.988 267.29 340.125 299.469 336.233 Z M 185.22 337.064 C 180.548 337.493 175.18 337.989 170.257 338.467 C 166.034 338.878 160.313 339.368 156.197 339.782 C 155.646 339.839 155.631 339.958 156.05 339.958 C 166.58 341.308 177.32 342.617 186.349 343.727 C 186.036 341.684 185.664 339.701 185.329 337.683 C 185.261 337.339 185.243 337.205 185.22 337.064 Z M 128.985 339.333 C 128.955 339.599 128.909 339.875 128.909 340.059 C 131.837 340.416 132.348 340.465 133.497 340.615 C 137.156 341.093 139.929 341.477 143.853 341.978 C 156.759 343.627 167.476 345.072 179.833 346.709 C 182.73 347.093 184.432 347.29 186.992 347.565 C 186.911 347.123 186.843 346.743 186.777 346.313 C 167.734 343.88 148.144 341.396 129.037 338.969 C 129.017 339.113 129.001 339.185 128.985 339.333 Z M 343.572 346.237 C 345.331 346.199 345.244 341.504 343.336 341.999 C 341.779 342.403 341.731 346.277 343.572 346.237 Z M 128.342 342.313 C 126.996 352.849 125.698 364.699 124.338 375.595 C 124.185 376.822 124.049 378.661 123.94 379.832 C 123.845 380.853 127.055 380.724 128.247 380.717 C 130.288 380.71 132.185 380.828 132.321 380.077 C 132.574 378.479 132.723 377.459 132.893 376.065 C 133.937 367.6 135.017 359.028 136.033 350.476 C 136.21 348.988 136.285 348.424 136.474 346.726 C 136.626 345.369 135.567 344.158 133.208 343.254 C 131.715 342.682 130.593 342.414 128.383 342.062 C 128.365 342.168 128.357 342.211 128.342 342.313 Z M 319.475 343.569 C 318.307 343.518 316.75 343.455 315.684 343.395 C 315.71 343.712 315.925 343.758 316.17 343.774 C 316.476 343.795 316.957 343.814 317.264 343.825 C 318.884 343.901 319.782 343.958 321.099 344.016 C 321.099 343.907 321.109 343.833 321.11 343.656 C 320.63 343.626 320.065 343.596 319.475 343.569 Z M 262.567 346.473 C 261.336 345.761 258.795 344.378 257.519 343.668 C 256.931 343.727 256.929 343.739 256.362 343.777 C 257.045 344.149 257.325 344.337 257.935 344.667 C 258.589 345.023 263.362 347.736 264.02 348.097 C 264.121 347.878 264.142 347.784 264.238 347.415 C 263.56 347.034 263.149 346.81 262.567 346.473 Z M 315.237 358.718 C 318.23 355.825 321.594 352.427 324.577 349.377 C 324.756 349.194 324.999 348.965 325.311 348.671 C 324.919 348.671 324.263 348.671 323.871 348.671 C 323.169 348.174 322.829 347.943 322.301 347.572 C 321.758 347.191 321.099 346.811 321.09 346.438 C 318.5 346.225 317.479 346.165 315.237 346.002 C 313.621 345.755 314.268 343.765 312.881 343.49 C 312.878 349.355 313.846 354.248 315.237 358.718 Z M 256.129 345.531 C 255.284 345.061 254.22 344.489 253.486 344.146 C 250.586 344.517 246.292 345.061 244.979 345.23 C 245.2 351.837 245.385 358.474 245.613 365.077 C 252.24 361.344 256.253 354.995 258.642 347.023 C 257.793 346.503 257.015 346.024 256.129 345.531 Z M 327.482 348.906 C 323.735 352.653 319.464 357.01 315.795 360.68 C 315.828 360.866 315.864 361.153 316.008 361.451 C 316.298 361.23 316.661 360.903 316.963 360.601 C 318.032 359.532 319.069 358.514 320.103 357.462 C 323.875 353.624 328.291 349.186 332.198 345.218 C 332.283 345.132 332.375 345.088 332.173 344.849 C 332.051 344.734 331.89 344.611 331.837 344.611 C 329.989 346.38 328.976 347.412 327.482 348.906 Z M 242.623 346.625 C 242.683 348.367 242.767 349.238 242.786 351.104 C 242.833 355.605 243.023 360.386 243.257 364.605 C 243.307 365.524 243.337 366.31 243.379 367.454 C 243.644 367.296 243.817 367.208 244.063 366.979 C 243.788 360.925 243.602 352.528 243.413 346.552 C 243.399 346.098 243.374 345.678 243.368 345.393 C 243.288 345.393 242.654 345.491 242.577 345.491 C 242.596 345.776 242.593 346.18 242.623 346.625 Z M 233.131 346.631 C 231.227 348.429 229.35 350.209 227.557 351.889 C 227.308 352.125 227.058 352.359 226.765 352.655 C 229.948 359.1 234.31 364.552 241.687 366.803 C 241.448 360.109 241.186 352.757 241.059 345.689 C 238.073 346.052 235.08 346.411 233.131 346.631 Z M 229.153 347.135 C 228.141 348.081 227.428 348.756 226.538 349.613 C 226.236 349.904 226.146 349.975 225.744 350.391 C 225.82 350.59 225.942 351.003 226.019 351.107 C 226.35 350.795 226.748 350.422 227.088 350.084 C 228.168 349.003 228.901 348.22 230.114 347.034 C 229.668 347.064 229.428 347.097 229.153 347.135 Z M 224.931 347.708 C 225.02 348.063 225.093 348.258 225.203 348.593 C 225.588 348.191 225.858 347.95 226.259 347.54 C 225.652 347.608 225.57 347.635 224.931 347.708 Z M 336.969 348.623 C 336.816 348.623 336.734 348.623 336.195 348.623 C 336.387 358.321 336.797 367.625 336.985 377.328 C 337.221 377.189 337.437 377.073 337.624 376.964 C 337.855 376.83 338.106 376.676 338.313 376.536 C 344.688 372.237 348.689 365.047 351.029 356.835 C 346.166 353.953 341.911 351.425 336.969 348.623 Z M 317.826 362.329 C 317.523 362.632 317.242 362.903 316.911 363.249 C 319.845 369.557 323.942 375.152 330.15 378.107 C 331.042 378.533 331.937 379.053 332.976 379.127 C 332.52 373.998 332.69 368.269 332.427 362.722 C 332.22 358.368 332.1 354.048 332.033 349.769 C 332.027 349.273 332.002 349.11 332.002 348.732 C 331.948 348.732 331.148 348.732 331.096 348.732 C 326.438 353.309 322.38 357.776 317.826 362.329 Z M 333.689 349.262 C 333.927 358.112 334.195 367.29 334.467 375.987 C 334.504 377.154 334.659 379.046 334.685 379.519 C 334.879 379.593 335.257 379.587 335.349 379.453 C 335.135 372.999 334.818 362.814 334.702 356.364 C 334.661 354.065 334.625 351.554 334.467 349.534 C 334.448 349.29 334.446 349.112 334.424 348.669 C 334.127 348.669 334.03 348.669 333.678 348.669 C 333.673 348.889 333.684 349.127 333.689 349.262 Z M 353.07 355.893 C 354.25 356.568 355.228 357.142 356.64 357.943 C 356.727 357.625 356.763 357.448 356.746 357.251 C 356.446 357.018 355.827 356.674 355.582 356.52 C 352.327 354.501 349.085 352.737 345.769 350.791 C 344.688 350.155 343.915 349.618 342.552 349.848 C 346.065 351.935 349.575 353.888 353.07 355.893 Z" style="fill: rgb(255, 255, 255); transform-box: fill-box; transform-origin: 50% 50%;"/>
</svg>